<?xml version="1.0" standalone="no"?>
<!DOCTYPE svg PUBLIC "-//W3C//DTD SVG 20010904//EN"
 "http://www.w3.org/TR/2001/REC-SVG-20010904/DTD/svg10.dtd">
<svg version="1.0" xmlns="http://www.w3.org/2000/svg"
 width="1104.000000pt" height="844.000000pt" viewBox="0 0 1104.000000 844.000000"
 preserveAspectRatio="xMidYMid meet">

<g transform="translate(0.000000,844.000000) scale(0.100000,-0.100000)"
fill="#000000" stroke="none">
<path d="M3560 8318 c-591 -125 -759 -194 -807 -331 -23 -65 -25 -287 -4 -392
26 -131 128 -390 184 -467 28 -38 66 -49 134 -38 32 6 65 10 73 10 12 0 23
-38 48 -162 18 -90 41 -195 51 -235 l18 -72 -106 -98 c-404 -375 -679 -758
-876 -1218 -268 -627 -334 -1320 -190 -1995 43 -203 132 -467 221 -659 24 -52
44 -96 44 -97 0 -2 -140 -4 -311 -4 l-311 0 -30 -25 c-17 -14 -77 -49 -134
-77 -89 -43 -104 -54 -104 -74 l0 -24 4027 0 4027 0 -104 100 -105 100 -272 0
c-150 0 -273 2 -273 5 0 3 22 50 50 105 122 242 219 534 279 835 75 380 75
850 0 1230 -113 568 -365 1085 -740 1520 -465 538 -1089 923 -1804 1110 -55
14 -101 28 -103 29 -10 11 15 36 41 42 114 24 189 119 190 239 0 143 -98 244
-238 245 -175 0 -289 -196 -206 -358 10 -20 28 -46 40 -56 21 -19 27 -51 13
-73 -5 -8 -21 -9 -52 -3 -250 46 -733 58 -1005 26 -441 -52 -824 -160 -1198
-338 -70 -34 -128 -59 -130 -57 -4 6 -47 184 -47 196 0 6 35 23 77 38 99 35
113 45 143 99 24 45 24 46 11 143 -7 54 -19 152 -26 218 -16 145 -48 281 -74
315 -20 27 -33 28 -163 19 -36 -3 -58 -1 -59 6 -11 211 -49 255 -199 223z
m2940 -503 c74 -38 85 -154 20 -209 -44 -37 -82 -41 -134 -16 -94 45 -101 167
-13 220 38 24 87 26 127 5z"/>
<path d="M402 2258 l3 -33 88 -3 88 -3 -3 33 -3 33 -88 3 -88 3 3 -33z"/>
<path d="M926 2282 c-6 -10 -46 -167 -46 -181 0 -8 76 -11 245 -11 214 0 245
2 245 15 0 9 -10 54 -21 100 l-21 85 -199 0 c-109 0 -200 -4 -203 -8z"/>
<path d="M1676 2273 c-2 -10 -12 -58 -21 -108 -8 -49 -20 -111 -26 -137 l-11
-48 -451 -2 c-249 -1 -425 -4 -392 -7 57 -6 60 -7 57 -31 -2 -14 -7 -29 -12
-35 -4 -5 -10 -29 -14 -51 -7 -48 0 -54 54 -46 19 3 69 5 110 6 69 1 75 -1 75
-19 0 -19 -8 -20 -130 -25 l-129 -5 -10 -32 c-7 -26 -15 -33 -35 -34 -23 -2
-24 -2 -3 -6 27 -5 28 -18 0 -107 l-22 -71 -24 128 -24 127 -44 0 c-40 0 -44
2 -44 25 0 23 4 25 41 25 34 0 40 3 35 18 -3 9 -8 35 -11 57 -12 72 -14 75
-50 75 -29 0 -34 4 -39 30 -3 17 -9 44 -12 60 l-6 30 -160 0 -160 0 6 -22 c3
-13 17 -81 32 -153 14 -71 29 -132 33 -135 3 -3 12 -17 19 -33 6 -15 23 -32
37 -39 14 -6 28 -21 30 -32 3 -12 25 -112 50 -223 25 -111 45 -209 45 -218 0
-9 -13 -21 -30 -26 -17 -6 -30 -14 -30 -19 0 -11 59 -292 65 -307 3 -10 55
-13 210 -13 113 0 205 2 205 5 0 2 25 98 56 212 31 115 64 237 73 273 l17 65
90 3 89 3 75 -281 75 -280 206 0 207 0 7 36 c3 20 11 44 16 53 6 9 20 56 32
104 21 82 25 90 55 102 l32 14 -5 -45 c-2 -24 -8 -52 -13 -62 -13 -24 -3 -82
14 -82 19 0 18 -10 -6 -65 -11 -26 -20 -51 -20 -56 0 -5 25 -9 55 -9 l54 0 11
40 c6 21 15 42 20 45 17 11 21 -15 5 -44 -8 -17 -15 -32 -15 -36 0 -3 69 -5
153 -5 l153 0 35 113 35 112 331 3 331 2 11 32 c6 17 11 33 11 34 0 2 -51 4
-114 4 l-114 0 -7 30 -7 30 -149 0 -150 0 3 58 3 57 100 0 100 0 3 -27 c3 -28
5 -28 72 -28 67 0 68 -1 79 -30 l10 -30 95 0 95 0 10 38 c6 20 24 77 40 126
l29 88 -38 102 -38 101 -196 3 c-108 1 -196 1 -196 -1 0 -2 18 -66 40 -141 22
-75 40 -139 40 -141 0 -3 -67 -5 -150 -5 -82 0 -150 3 -150 7 0 4 18 66 40
139 22 73 40 135 40 138 0 3 -60 7 -132 9 l-133 3 137 2 c127 2 137 3 142 22
3 11 9 29 12 40 5 19 1 20 -120 20 -72 0 -127 4 -131 10 -4 6 42 10 129 10
l136 0 11 45 c6 25 15 45 19 45 4 0 13 -20 20 -45 l13 -45 192 0 193 0 -25 83
c-32 106 -61 144 -118 158 l-45 11 0 62 0 62 -149 48 c-82 26 -162 46 -177 44
-22 -2 -35 -15 -61 -60 -26 -45 -37 -55 -53 -51 -26 7 -25 15 5 63 31 49 31
50 1 50 -20 0 -28 -9 -41 -44 -15 -38 -22 -45 -48 -48 -27 -3 -32 -9 -49 -58
-10 -30 -17 -63 -14 -73 2 -9 1 -15 -3 -13 -4 3 -22 -43 -41 -102 -19 -59 -36
-113 -39 -121 -3 -9 0 -12 7 -7 19 12 14 -9 -7 -28 -11 -10 -34 -61 -51 -114
-37 -110 -52 -143 -74 -161 -9 -7 -14 -17 -11 -21 3 -4 -3 -11 -12 -14 -15 -6
-15 -8 -3 -16 8 -6 10 -10 4 -10 -7 0 -19 -18 -28 -40 -20 -51 -20 -53 5 -40
40 22 16 -22 -30 -54 -27 -19 -51 -47 -62 -71 -10 -22 -18 -38 -18 -35 -1 3
30 136 69 295 38 160 70 296 70 303 0 12 -16 11 -73 -5 -33 -9 -15 31 18 41
64 18 75 26 75 47 0 22 -8 22 -72 3 -13 -4 -18 0 -18 15 0 15 9 22 38 26 64
11 72 16 72 38 0 20 -4 22 -45 19 -35 -3 -45 -1 -45 11 0 17 21 27 58 27 34 0
47 9 55 38 5 22 4 22 -44 16 -41 -5 -49 -4 -49 9 0 16 11 21 71 31 29 5 38 12
42 31 4 25 3 25 -45 19 -45 -6 -50 -5 -46 12 2 14 16 21 53 27 27 4 50 9 51
10 1 1 5 18 9 38 l7 37 -44 -9 c-58 -11 -58 -11 -58 6 0 13 -24 15 -160 15
l-159 0 -5 -32 c-3 -18 -8 -53 -12 -78 -4 -25 -8 -67 -10 -95 -1 -27 -5 -65
-9 -82 -5 -30 -4 -33 20 -33 29 0 29 1 14 -72 l-11 -55 -40 10 c-35 9 -38 12
-34 36 6 24 25 153 47 301 5 36 12 73 15 83 4 13 0 17 -20 17 -15 0 -27 -7
-30 -17z m-66 -323 c0 -21 -70 -423 -74 -428 -2 -1 -15 41 -31 94 -22 79 -24
98 -13 105 10 7 9 9 -4 9 -23 0 -32 64 -19 136 16 83 16 84 -24 84 l-35 0 0
-65 c0 -37 -4 -65 -10 -65 -6 0 -10 28 -10 65 l0 65 -85 0 -85 0 -1 -67 -1
-68 -9 60 c-11 75 -17 90 -19 45 l-1 -35 -16 35 -16 35 -13 -40 c-7 -22 -13
-52 -13 -67 -1 -16 -5 -28 -9 -28 -4 0 -6 15 -4 34 3 26 -1 39 -17 52 -21 18
-27 44 -14 57 3 4 123 7 265 7 251 0 258 -1 258 -20z m-417 -437 c3 -16 9 -36
12 -45 6 -16 -1 -18 -78 -18 l-86 0 10 33 c6 17 12 38 15 45 2 8 24 12 62 12
57 0 60 -1 65 -27z m921 -125 c-23 -84 -40 -156 -38 -160 3 -4 12 -8 20 -8 18
0 18 -15 -2 -73 -9 -26 -21 -44 -27 -42 -7 3 -24 9 -39 14 l-28 10 70 203 c39
111 70 204 70 205 0 2 4 3 9 3 4 0 -11 -68 -35 -152z m-488 -275 c-2 -10 -8
-42 -11 -70 l-7 -53 -40 0 -40 0 6 48 c10 70 15 80 39 85 48 9 58 7 53 -10z"/>
<path d="M7245 2274 c-113 -25 -210 -77 -285 -153 -64 -65 -72 -78 -127 -198
-27 -61 -29 -63 -65 -63 l-38 0 -1 -267 c-1 -234 -3 -262 -14 -218 -28 117
-94 187 -219 235 l-29 11 44 28 c46 29 119 104 119 122 0 12 -4 9 -79 -43 -41
-28 -64 -38 -94 -38 -24 0 -49 -8 -64 -20 -24 -19 -41 -20 -292 -20 -154 0
-272 4 -281 10 -10 7 18 10 88 10 70 0 102 4 102 12 0 13 -468 4 -482 -10 -5
-5 -7 -161 -6 -348 l3 -339 57 -3 c55 -3 58 -2 73 28 15 29 18 30 84 30 l68 0
31 -70 31 -70 203 0 c230 0 385 17 450 49 106 51 179 153 197 276 5 33 9 50
10 38 1 -21 31 -35 31 -15 0 4 16 8 35 9 25 1 36 -4 40 -18 4 -13 16 -19 36
-19 24 0 29 4 29 25 0 20 5 25 25 25 22 0 25 -4 25 -39 0 -31 -4 -40 -21 -44
-12 -3 -22 0 -26 9 -7 18 -32 18 -39 0 -6 -15 53 -113 81 -136 8 -7 15 -24 15
-37 0 -20 4 -24 19 -20 10 2 37 -8 61 -24 24 -16 69 -39 102 -50 l58 -22 0
-83 c0 -85 15 -116 23 -47 l4 38 1 -37 c2 -35 4 -38 32 -38 l30 0 0 75 c0 73
1 75 25 75 l25 0 0 -100 c0 -60 4 -100 10 -100 6 0 10 38 10 93 l0 94 103 6
c175 11 283 54 390 156 49 46 127 154 127 175 0 3 -60 6 -133 6 l-133 0 -29
30 c-39 41 -81 41 -120 0 l-29 -30 39 0 c76 0 28 -8 -92 -15 l-123 -7 0 361
c0 234 -4 361 -10 361 -6 0 -10 -105 -10 -295 l0 -295 -25 0 -25 0 0 306 0
305 35 15 c19 7 61 14 93 14 108 0 193 -70 229 -188 30 -100 23 -343 -14 -438
-4 -12 24 -14 190 -14 178 0 196 2 201 18 28 88 27 299 0 629 l-6 63 -38 -6
c-38 -6 -39 -5 -85 57 -26 35 -57 69 -70 76 -12 7 -26 24 -29 38 -6 22 -12 25
-44 24 -20 0 -71 12 -112 27 -64 23 -93 28 -200 30 -86 3 -147 -1 -195 -12z
m-244 -1094 c-2 -3 -6 1 -8 8 -3 6 -11 12 -19 12 -8 0 -14 5 -14 10 0 6 7 10
15 10 12 0 15 20 15 117 0 91 -3 114 -12 105 -19 -19 -28 -14 -28 14 0 17 -4
23 -12 18 -7 -4 -5 2 5 13 15 18 17 46 17 281 0 240 1 261 18 264 16 3 17 -24
22 -422 3 -234 4 -427 1 -430z m193 598 c-4 -24 -13 -70 -20 -103 l-12 -60 -1
50 c-1 57 21 155 34 155 3 0 2 -19 -1 -42z m-327 -40 c-2 -13 -4 -5 -4 17 -1
22 1 32 4 23 2 -10 2 -28 0 -40z m-1170 -74 c-3 -3 -12 -4 -19 -1 -8 3 -5 6 6
6 11 1 17 -2 13 -5z m40 0 c-3 -3 -12 -4 -19 -1 -8 3 -5 6 6 6 11 1 17 -2 13
-5z m1093 -174 c0 -22 -4 -40 -10 -40 -5 0 -10 18 -10 40 0 22 5 40 10 40 6 0
10 -18 10 -40z m76 -40 c1 -41 -1 -56 -3 -33 -3 32 -8 41 -19 36 -11 -4 -14 4
-14 37 0 34 3 41 18 38 14 -3 17 -15 18 -78z m-659 -3 c50 -27 73 -63 73 -118
0 -37 -6 -54 -27 -80 -43 -50 -76 -59 -228 -59 -113 0 -135 2 -135 15 0 8 7
15 15 15 11 0 15 12 15 50 0 38 -4 50 -15 50 -12 0 -15 15 -15 76 l0 76 143
-4 c108 -3 150 -8 174 -21z m1020 -144 c-2 -32 -3 -8 -3 52 0 61 1 87 3 58 2
-29 2 -78 0 -110z m-437 47 c0 -5 -13 -10 -30 -10 -16 0 -30 5 -30 10 0 6 14
10 30 10 17 0 30 -4 30 -10z m-63 -52 c-3 -8 -6 -5 -6 6 -1 11 2 17 5 13 3 -3
4 -12 1 -19z m83 -11 c10 -4 8 -6 -7 -6 -16 -1 -23 5 -23 17 0 10 3 13 8 6 4
-6 14 -14 22 -17z m350 8 c0 -12 -16 -15 -85 -15 -69 0 -85 3 -85 15 0 12 16
15 85 15 69 0 85 -3 85 -15z m30 0 c0 -8 -4 -15 -10 -15 -5 0 -10 7 -10 15 0
8 5 15 10 15 6 0 10 -7 10 -15z m110 -50 c0 -31 -3 -35 -25 -35 -22 0 -25 4
-25 35 0 31 3 35 25 35 22 0 25 -4 25 -35z m-177 -32 c-23 -2 -64 -2 -90 0
-26 2 -7 3 42 3 50 0 71 -1 48 -3z"/>
<path d="M5983 1253 c9 -2 25 -2 35 0 9 3 1 5 -18 5 -19 0 -27 -2 -17 -5z"/>
<path d="M6152 1230 c0 -19 2 -27 5 -17 2 9 2 25 0 35 -3 9 -5 1 -5 -18z"/>
<path d="M7760 2270 c0 -11 7 -20 15 -20 8 0 15 9 15 20 0 11 -7 20 -15 20 -8
0 -15 -9 -15 -20z"/>
<path d="M8390 2286 c0 -2 7 -7 16 -10 8 -3 12 -2 9 4 -6 10 -25 14 -25 6z"/>
<path d="M8436 2281 c8 -9 54 -8 54 0 0 4 -14 7 -30 7 -17 -1 -28 -4 -24 -7z"/>
<path d="M8500 2286 c0 -2 7 -7 16 -10 8 -3 12 -2 9 4 -6 10 -25 14 -25 6z"/>
<path d="M8545 2280 c3 -5 8 -10 11 -10 2 0 4 5 4 10 0 6 -5 10 -11 10 -5 0
-7 -4 -4 -10z"/>
<path d="M8614 2283 c8 -8 56 -11 51 -3 -3 4 -16 8 -30 8 -14 0 -24 -3 -21 -5z"/>
<path d="M8680 2286 c0 -2 7 -7 16 -10 8 -3 12 -2 9 4 -6 10 -25 14 -25 6z"/>
<path d="M8725 2280 c3 -5 8 -10 11 -10 2 0 4 5 4 10 0 6 -5 10 -11 10 -5 0
-7 -4 -4 -10z"/>
<path d="M8750 2286 c0 -2 7 -7 16 -10 8 -3 12 -2 9 4 -6 10 -25 14 -25 6z"/>
<path d="M8795 2280 c3 -5 8 -10 11 -10 2 0 4 5 4 10 0 6 -5 10 -11 10 -5 0
-7 -4 -4 -10z"/>
<path d="M192 2255 c0 -16 2 -22 5 -12 2 9 2 23 0 30 -3 6 -5 -1 -5 -18z"/>
<path d="M217 2225 c3 -33 7 -62 9 -64 9 -10 3 95 -6 109 -6 9 -7 -6 -3 -45z"/>
<path d="M234 2267 c3 -10 6 -39 6 -63 0 -25 5 -44 11 -44 14 0 2 100 -13 115
-8 7 -9 4 -4 -8z"/>
<path d="M262 2260 c-1 -14 3 -43 7 -65 l9 -40 0 35 c0 19 -4 49 -8 65 -7 27
-8 28 -8 5z"/>
<path d="M281 2265 c0 -11 4 -38 8 -60 l9 -40 1 45 c0 25 -4 52 -9 60 -8 12
-10 12 -9 -5z"/>
<path d="M310 2275 c-1 -5 -1 -26 0 -45 2 -38 19 -67 21 -34 1 15 3 14 9 -6 7
-23 8 -22 8 10 0 19 -4 46 -8 60 -8 25 -8 25 -10 -5 l-2 -30 -8 30 c-4 17 -9
26 -10 20z"/>
<path d="M355 2234 c4 -27 9 -51 12 -54 10 -10 23 28 22 65 0 22 -3 34 -6 27
-4 -10 -8 -10 -20 0 -13 10 -14 6 -8 -38z m22 -21 c-3 -10 -5 -4 -5 12 0 17 2
24 5 18 2 -7 2 -21 0 -30z"/>
<path d="M2940 2275 c0 -3 38 -64 85 -135 l84 -130 54 0 c48 0 55 -3 61 -22
10 -38 7 -103 -6 -116 -8 -8 -8 -15 2 -27 10 -12 38 -15 151 -15 137 0 139 0
127 20 -7 11 -21 20 -31 20 -10 0 -22 10 -27 23 l-9 22 0 -22 c-1 -16 -7 -23
-21 -23 -14 0 -22 11 -30 43 -17 65 -21 67 -15 9 6 -51 5 -53 -17 -50 -18 2
-24 12 -30 48 -4 25 -10 55 -13 68 -4 18 -1 22 19 22 15 0 26 -7 29 -17 4 -17
5 -17 6 0 1 10 9 17 21 17 20 0 13 19 -76 206 -13 27 -14 37 -4 49 11 13 -10
15 -174 15 -102 0 -186 -2 -186 -5z"/>
<path d="M3866 2119 c-90 -151 -95 -163 -91 -206 5 -45 5 -45 -24 -40 -23 5
-30 2 -39 -19 l-12 -24 218 0 217 0 37 58 c21 31 85 129 143 216 58 88 105
163 105 168 0 4 -103 8 -229 8 l-230 0 -95 -161z"/>
<path d="M9410 2270 c0 -6 37 -66 82 -135 l82 -125 83 0 83 0 0 -65 0 -65 -40
0 -40 0 16 -25 16 -25 414 0 413 0 16 23 15 22 -105 3 -105 3 0 64 0 64 152 3
152 3 78 125 c43 68 78 128 78 132 0 4 -101 8 -225 8 -222 0 -225 0 -239 -22
-43 -68 -196 -352 -196 -364 0 -13 -4 -15 -30 -18 -6 -1 -19 13 -30 29 l-20
30 0 -27 c0 -25 -4 -28 -35 -28 l-35 0 0 69 c0 44 4 71 12 73 7 3 -17 54 -62
131 l-73 127 -228 0 c-148 0 -229 -4 -229 -10z m530 -325 l0 -65 -75 0 -75 0
0 65 0 65 75 0 75 0 0 -65z"/>
<path d="M4491 2227 c-15 -34 -24 -44 -42 -43 -32 1 -62 -54 -63 -115 -1 -26
-4 -42 -8 -36 -3 5 -15 -19 -27 -54 -11 -35 -27 -82 -35 -104 -17 -46 -20 -69
-7 -61 5 4 7 -3 4 -14 -3 -11 -10 -20 -17 -20 -6 0 -31 -59 -55 -131 -33 -96
-50 -135 -68 -146 -12 -8 -20 -19 -17 -24 3 -5 0 -9 -6 -9 -7 0 -10 -6 -7 -14
3 -7 0 -19 -6 -25 -6 -6 -8 -11 -3 -11 4 0 0 -10 -8 -22 -22 -31 -20 -41 6
-33 17 6 20 4 15 -10 -4 -9 -7 -18 -7 -21 0 -2 -17 -12 -39 -23 -40 -21 -78
-81 -65 -103 4 -7 3 -8 -4 -4 -7 4 -13 1 -13 -6 -1 -7 -2 -24 -3 -38 -1 -14
-8 -42 -15 -63 -14 -43 -6 -97 15 -97 11 0 10 -10 -6 -52 -29 -77 -28 -80 32
-76 50 3 51 4 65 42 16 47 18 50 32 41 8 -4 6 -15 -4 -35 -8 -16 -15 -34 -15
-40 0 -7 49 -10 152 -8 l153 3 34 113 35 112 328 0 328 0 10 26 c6 14 10 30
10 35 0 5 -49 9 -110 9 l-110 0 -6 30 -6 30 -155 0 -155 0 6 23 c3 12 6 39 6
60 l0 37 100 0 100 0 0 -30 0 -30 73 0 c72 0 73 0 84 -30 l12 -31 92 3 93 3
37 115 c21 63 38 122 38 131 1 9 -15 60 -35 113 l-37 96 -193 0 c-107 0 -194
-4 -194 -9 0 -4 17 -67 39 -140 l39 -131 -150 0 -150 0 5 23 c4 19 47 160 71
234 7 22 7 22 -131 26 l-138 3 141 2 c138 2 142 3 148 25 3 12 6 32 6 44 0 22
-3 22 -127 26 l-128 3 137 2 137 2 8 41 c11 53 23 54 41 2 l14 -43 189 0 c104
0 189 3 189 7 0 4 -11 44 -25 90 -31 99 -57 133 -116 147 l-44 11 3 60 4 61
-146 47 c-80 26 -160 47 -179 47 -30 0 -36 -6 -67 -59 -29 -50 -37 -58 -55
-51 -24 10 -23 18 10 70 l25 40 -25 0 c-21 0 -29 -8 -44 -43z m-281 -832 c-43
-150 -43 -155 -6 -168 15 -5 -24 -107 -40 -107 -12 0 -49 15 -61 25 -3 2 104
321 126 379 7 16 14 26 17 23 3 -3 -13 -71 -36 -152z"/>
<path d="M4900 2244 c92 -29 92 -29 88 -1 -3 21 -8 22 -83 24 l-80 2 75 -25z"/>
<path d="M2742 2254 c8 -7 158 -54 158 -49 0 2 -4 15 -10 29 -9 25 -13 26 -81
26 -40 0 -70 -3 -67 -6z"/>
<path d="M5527 2253 c-4 -3 -7 -78 -7 -165 l0 -158 -79 0 c-85 0 -91 -4 -91
-60 0 -55 4 -57 89 -52 52 3 81 1 85 -7 4 -6 39 -12 79 -13 l72 -2 -75 -5 -75
-6 -3 -41 -3 -41 363 -5 c200 -3 415 -2 479 1 114 6 116 6 173 46 l59 40 -149
5 -149 6 172 2 c202 2 193 -3 193 116 0 97 -27 171 -83 229 -45 45 -149 105
-155 87 -2 -6 -122 -10 -347 -10 -334 0 -343 0 -348 20 -5 18 -14 20 -99 20
-52 0 -98 -3 -101 -7z m678 -287 c39 -17 65 -60 65 -111 l0 -35 -170 0 -170 0
0 80 0 80 120 0 c82 0 132 -5 155 -14z m-685 -95 c0 -6 -4 -12 -8 -15 -5 -3
-9 1 -9 9 0 8 4 15 9 15 4 0 8 -4 8 -9z m520 -126 c0 -12 -13 -15 -55 -15 -42
0 -55 3 -55 15 0 12 13 15 55 15 42 0 55 -3 55 -15z"/>
<path d="M8228 2253 l-128 -4 0 -109 0 -110 219 0 c136 0 222 -4 226 -10 3 -5
33 -10 65 -10 32 0 62 5 65 10 4 6 89 10 223 10 216 0 218 0 255 -25 36 -25
37 -28 37 -84 0 -56 1 -59 27 -64 33 -6 82 21 61 34 -8 5 19 9 65 9 l77 0 0
30 0 30 -77 0 c-96 0 -88 20 11 27 l66 6 0 123 0 123 -147 6 c-180 7 -870 12
-1045 8z m952 -233 c0 -5 -4 -10 -9 -10 -6 0 -13 5 -16 10 -3 6 1 10 9 10 9 0
16 -4 16 -10z"/>
<path d="M2910 2128 c0 -27 4 -38 15 -38 18 0 18 0 0 41 l-14 34 -1 -37z"/>
<path d="M5008 2136 c-4 -18 -1 -29 9 -33 22 -9 26 3 10 33 l-14 27 -5 -27z"/>
<path d="M8100 1965 l0 -55 46 35 c42 32 85 46 84 28 -1 -5 -20 -21 -43 -38
l-42 -30 45 -3 c30 -2 48 -10 58 -23 12 -17 27 -19 145 -21 106 -1 118 -3 62
-7 -59 -5 -78 -11 -119 -41 l-48 -35 125 -3 126 -3 3 -77 3 -77 203 -3 202 -2
0 100 0 100 -91 0 c-57 0 -88 4 -84 10 3 6 48 10 100 10 73 0 94 3 99 15 4 12
25 15 96 15 l90 0 0 58 c0 86 -10 90 -246 98 -169 6 -191 5 -203 -10 -19 -22
-172 -23 -191 -1 -10 12 -47 15 -216 15 l-204 0 0 -55z m245 5 c4 -6 -13 -10
-44 -10 -28 0 -51 5 -51 10 0 6 20 10 44 10 25 0 48 -4 51 -10z m755 0 c0 -5
-4 -10 -10 -10 -5 0 -10 5 -10 10 0 6 5 10 10 10 6 0 10 -4 10 -10z m-580 -80
c0 -6 -48 -10 -125 -10 -77 0 -125 4 -125 10 0 6 48 10 125 10 77 0 125 -4
125 -10z"/>
<path d="M3422 1940 c0 -14 2 -19 5 -12 2 6 2 18 0 25 -3 6 -5 1 -5 -13z"/>
<path d="M710 1870 c0 -47 4 -80 10 -80 6 0 10 33 10 80 0 47 -4 80 -10 80 -6
0 -10 -33 -10 -80z"/>
<path d="M752 1910 c-17 -57 -16 -117 3 -117 12 0 15 16 15 79 0 43 -1 78 -3
78 -1 0 -8 -18 -15 -40z m5 -57 c-3 -10 -5 -4 -5 12 0 17 2 24 5 18 2 -7 2
-21 0 -30z"/>
<path d="M9710 1805 c0 -3 27 -46 60 -95 l60 -90 -22 -35 c-25 -37 -57 -51
-38 -16 13 26 13 31 -4 31 -19 0 -72 -81 -233 -354 -72 -123 -89 -157 -73
-153 11 3 20 3 20 1 0 -2 -27 -45 -60 -95 -33 -50 -60 -92 -60 -95 0 -2 106
-3 236 -2 l236 3 128 209 c71 115 132 212 137 217 4 4 64 -83 132 -194 68
-111 131 -210 139 -219 14 -16 38 -18 244 -18 147 0 228 4 228 10 0 6 -16 35
-36 65 l-37 55 -113 0 c-95 0 -114 3 -114 15 0 12 18 15 100 15 55 0 100 2
100 5 0 3 -15 28 -32 55 l-33 50 -72 0 -72 0 -7 45 -6 45 -167 0 -166 0 7 88
c3 48 7 90 7 95 1 4 48 7 106 7 l105 0 0 -50 0 -50 70 0 c83 0 85 -12 -22 147
-37 56 -68 107 -68 113 0 6 23 47 51 91 28 45 53 87 56 95 4 12 -56 14 -391
14 -218 0 -396 -2 -396 -5z"/>
<path d="M3283 1748 c18 -29 68 -107 110 -174 l77 -121 0 -291 0 -292 210 0
210 0 0 130 0 130 -88 0 -88 0 7 58 c4 31 8 65 8 74 1 15 14 18 84 20 l82 3 5
95 5 95 103 159 c56 87 101 160 99 163 -2 2 -93 2 -201 1 l-196 -3 25 -37 c14
-20 25 -39 25 -41 0 -5 -107 -77 -114 -77 -2 0 -30 36 -60 80 l-56 80 -141 0
-140 0 34 -52z m477 -156 c-14 -5 -16 -3 -24 28 l-7 25 21 -25 c14 -15 18 -26
10 -28z"/>
<path d="M4780 1783 c0 -5 5 -25 11 -45 l10 -38 194 0 c107 0 195 2 195 5 0 2
-7 23 -16 45 l-16 40 -189 0 c-104 0 -189 -3 -189 -7z"/>
<path d="M2692 1730 l10 -40 195 0 c174 0 194 2 189 16 -3 9 -9 27 -12 40 l-6
24 -193 0 -193 0 10 -40z"/>
<path d="M9780 1619 c0 -5 5 -7 10 -4 6 3 10 8 10 11 0 2 -4 4 -10 4 -5 0 -10
-5 -10 -11z"/>
<path d="M8540 1495 c0 -77 3 -105 13 -106 6 -1 17 -2 22 -4 6 -1 16 -3 23 -3
15 -2 17 -188 2 -197 -5 -3 -10 -42 -10 -85 0 -74 -1 -79 -22 -82 -22 -3 -23
-8 -26 -90 l-3 -88 221 0 220 0 0 189 c0 155 -3 191 -15 201 -12 10 -15 45
-15 191 l0 179 -205 0 -205 0 0 -105z"/>
<path d="M5276 1450 c-31 -91 -62 -211 -55 -216 13 -8 139 7 139 16 0 23 -79
213 -84 200z"/>
<path d="M3149 1339 l-35 -114 74 -3 c41 -2 76 -1 79 1 2 2 -16 55 -40 117
l-43 112 -35 -113z"/>
<path d="M10286 1366 c2 -16 4 -35 4 -42 0 -8 6 -11 15 -8 19 8 20 44 1 44 -8
0 -17 8 -19 18 -2 9 -3 4 -1 -12z"/>
<path d="M10331 1380 c0 -8 6 -24 14 -34 8 -11 15 -14 15 -8 0 21 18 13 23
-10 3 -20 4 -21 11 -5 5 9 5 29 2 43 -6 24 -8 25 -25 10 -22 -20 -28 -20 -34
2 -3 12 -5 13 -6 2z"/>
<path d="M10210 1354 c0 -14 4 -23 10 -19 6 3 10 15 10 26 0 10 -4 19 -10 19
-5 0 -10 -12 -10 -26z"/>
<path d="M4731 1313 c0 -6 -4 -20 -7 -30 -5 -14 -4 -15 5 -7 7 7 11 20 8 30
-3 11 -5 14 -6 7z"/>
<path d="M4767 1296 c-4 -15 -6 -31 -2 -34 10 -10 16 6 13 35 l-3 28 -8 -29z"/>
<path d="M4807 1300 c-3 -11 -2 -22 3 -25 4 -3 10 4 13 15 3 11 2 22 -3 25 -4
3 -10 -4 -13 -15z"/>
<path d="M2600 1294 c0 -8 5 -12 10 -9 6 4 8 11 5 16 -9 14 -15 11 -15 -7z"/>
<path d="M2670 1292 c0 -9 4 -23 9 -30 6 -10 10 -7 13 12 3 15 0 27 -8 30 -9
3 -14 -1 -14 -12z"/>
<path d="M4687 1296 c-4 -10 -5 -21 -2 -24 9 -9 17 6 13 25 -3 17 -4 17 -11
-1z"/>
<path d="M2630 1268 c0 -19 2 -20 10 -8 13 19 13 30 0 30 -5 0 -10 -10 -10
-22z"/>
<path d="M2711 1264 c0 -11 3 -14 6 -6 3 7 2 16 -1 19 -3 4 -6 -2 -5 -13z"/>
<path d="M3861 1218 c-1 -16 4 -28 9 -28 12 0 12 8 0 35 -8 18 -9 17 -9 -7z"/>
<path d="M3762 1205 c0 -16 2 -22 5 -12 2 9 2 23 0 30 -3 6 -5 -1 -5 -18z"/>
<path d="M1070 1210 c0 -6 27 -10 60 -10 33 0 60 4 60 10 0 6 -27 10 -60 10
-33 0 -60 -4 -60 -10z"/>
<path d="M3820 1213 c0 -5 7 -18 15 -29 15 -18 15 -18 13 5 -3 23 -28 44 -28
24z"/>
<path d="M3741 1184 c0 -11 3 -14 6 -6 3 7 2 16 -1 19 -3 4 -6 -2 -5 -13z"/>
<path d="M5181 1139 c-6 -18 -11 -34 -11 -35 0 -2 23 -4 50 -4 28 0 50 -4 50
-10 0 -5 -24 -10 -54 -10 l-55 0 -26 -87 c-14 -49 -28 -96 -31 -105 -5 -16 3
-18 65 -18 l71 0 0 28 c0 46 15 52 127 52 61 0 103 4 103 10 0 5 -12 39 -26
75 l-26 65 -53 0 c-52 0 -53 0 -59 35 -7 35 -7 35 -60 35 -52 0 -55 -1 -65
-31z"/>
<path d="M3086 1138 c-11 -44 -8 -48 38 -48 25 0 48 -4 51 -10 4 -6 -16 -10
-53 -10 -57 0 -60 -1 -66 -27 -3 -16 -17 -63 -30 -105 l-24 -78 69 0 c69 0 69
0 69 28 0 46 15 52 131 52 l107 0 -28 73 -28 72 -53 5 c-50 5 -53 7 -61 38 -8
31 -10 32 -62 32 -47 0 -54 -3 -60 -22z"/>
<path d="M5023 975 c39 -135 50 -135 93 3 l32 102 -78 0 -78 0 31 -105z"/>
<path d="M2900 1063 c0 -3 12 -51 26 -105 36 -131 51 -132 89 -5 15 50 30 98
33 105 3 9 -15 12 -72 12 -42 0 -76 -3 -76 -7z"/>
<path d="M410 500 l0 -190 30 0 30 0 0 69 0 69 47 7 c63 9 116 38 131 70 14
31 16 90 2 114 -16 30 -83 51 -165 51 l-75 0 0 -190z m147 130 c21 0 43 -31
43 -60 0 -35 -27 -55 -87 -65 l-43 -7 0 65 c0 69 8 80 55 71 11 -2 25 -4 32
-4z"/>
<path d="M747 683 c-4 -3 -7 -89 -7 -190 l0 -183 30 0 30 0 0 75 0 75 43 0
c53 0 70 -16 95 -91 17 -49 22 -54 52 -57 31 -3 33 -2 27 25 -9 42 -46 122
-68 144 -10 10 -14 19 -9 19 17 0 50 63 50 95 0 45 -23 71 -74 84 -49 12 -159
15 -169 4z m169 -79 c18 -26 11 -60 -14 -73 -9 -5 -36 -12 -59 -16 l-43 -7 0
60 c0 34 5 62 11 64 5 2 28 2 50 0 28 -3 44 -11 55 -28z"/>
<path d="M1181 672 c-19 -9 -48 -34 -65 -55 -27 -33 -31 -48 -34 -112 -5 -87
13 -132 66 -173 30 -23 45 -27 102 -27 58 0 71 4 104 29 106 80 101 267 -8
331 -51 30 -116 33 -165 7z m119 -47 c40 -21 64 -69 64 -130 0 -61 -24 -109
-64 -130 -39 -20 -58 -19 -98 5 -85 52 -79 212 9 257 32 17 54 16 89 -2z"/>
<path d="M1514 676 c-12 -31 1 -270 16 -301 51 -100 210 -101 263 -1 19 36 21
57 22 176 l0 135 -30 0 -30 0 3 -105 c5 -181 -26 -242 -114 -225 -58 10 -69
38 -70 194 l-1 136 -27 3 c-16 2 -28 -2 -32 -12z"/>
<path d="M1928 684 c-3 -5 -6 -91 -6 -191 l0 -181 49 -7 c98 -14 168 14 215
84 64 97 36 228 -59 278 -34 17 -191 31 -199 17z m173 -77 c70 -47 77 -151 14
-214 -27 -27 -40 -33 -78 -33 -44 0 -44 1 -51 38 -3 20 -6 81 -6 135 l0 97 44
0 c28 0 55 -8 77 -23z"/>
<path d="M2310 501 l0 -191 115 0 115 0 0 25 c0 25 -1 25 -85 25 l-85 0 -2
163 -3 162 -27 3 -28 3 0 -190z"/>
<path d="M2540 678 c0 -8 16 -38 36 -68 72 -111 84 -143 84 -225 l0 -76 32 3
32 3 -3 61 c-3 73 9 105 78 210 28 42 51 83 51 90 0 9 -11 14 -29 14 -29 0
-43 -19 -100 -137 -9 -18 -18 -32 -21 -32 -3 0 -26 37 -51 82 -41 73 -49 82
-77 85 -22 2 -32 -1 -32 -10z"/>
<path d="M3060 499 l0 -190 32 3 32 3 -3 66 -2 67 48 7 c57 8 102 29 125 59
19 23 24 96 8 125 -16 30 -83 51 -165 51 l-75 0 0 -191z m140 131 c49 0 69
-77 28 -104 -13 -8 -41 -16 -63 -18 l-40 -3 -3 62 c-2 52 0 62 15 66 10 3 24
3 31 1 8 -2 22 -4 32 -4z"/>
<path d="M3397 683 c-4 -3 -7 -89 -7 -190 l0 -183 34 0 34 0 -5 75 -6 75 45 0
c54 0 69 -14 99 -93 21 -54 23 -57 56 -57 24 0 34 4 30 13 -44 111 -61 148
-73 158 -13 10 -12 15 6 35 12 12 24 40 27 63 7 53 -15 87 -64 100 -42 12
-166 15 -176 4z m167 -75 c9 -12 16 -28 16 -34 0 -26 -37 -52 -82 -59 l-48 -6
0 60 0 61 49 0 c40 0 53 -4 65 -22z"/>
<path d="M3759 688 c0 -2 -1 -87 -2 -191 l-2 -187 118 0 117 0 0 25 c0 25 -1
25 -84 25 l-83 0 -7 46 c-10 77 -12 74 58 74 49 0 65 4 70 16 12 31 5 34 -64
34 l-70 0 0 50 0 50 86 0 85 0 -3 28 -3 27 -107 3 c-60 1 -108 1 -109 0z"/>
<path d="M4110 679 c-59 -23 -79 -102 -39 -153 12 -15 50 -41 86 -58 92 -43
105 -88 33 -109 -29 -9 -50 -9 -85 0 -54 13 -50 15 -58 -20 -8 -32 8 -39 95
-39 100 0 148 34 148 106 0 56 -29 90 -107 125 -70 32 -90 56 -69 85 13 17 61
21 131 12 24 -4 35 40 13 53 -18 12 -117 10 -148 -2z"/>
<path d="M4380 500 l0 -191 118 3 c113 3 117 4 120 26 3 21 1 22 -87 22 l-91
0 0 60 0 60 65 0 c63 0 65 1 65 25 0 24 -2 25 -65 25 l-65 0 0 50 0 50 81 0
80 0 -3 28 -3 27 -107 3 -108 3 0 -191z"/>
<path d="M4697 683 c-3 -5 -5 -90 -5 -191 l-1 -182 30 0 29 0 0 133 c1 106 3
129 13 115 7 -9 48 -69 91 -133 68 -98 83 -116 104 -113 l23 3 0 178 c0 97 -1
182 -1 188 0 6 -12 9 -27 7 l-28 -3 3 -130 c2 -108 0 -127 -10 -111 -7 10 -48
69 -91 132 -63 92 -83 114 -102 114 -13 0 -26 -3 -28 -7z"/>
<path d="M5050 660 c0 -30 0 -30 55 -30 l55 0 0 -160 0 -160 34 0 34 0 -5 160
-6 160 62 0 c62 0 62 0 59 28 l-3 27 -142 3 -143 3 0 -31z"/>
<path d="M5407 683 c-2 -5 -4 -90 -5 -190 l-1 -183 119 0 120 0 0 25 c0 24 -2
24 -87 27 l-88 3 -3 57 -3 57 68 3 c60 3 68 5 68 23 0 18 -8 20 -67 23 l-68 3
0 49 0 50 79 0 c71 0 80 2 86 20 3 11 3 24 0 30 -7 12 -212 14 -218 3z"/>
<path d="M5718 501 l-3 -189 53 -7 c144 -18 245 65 246 200 0 126 -74 185
-230 185 l-63 0 -3 -189z m166 114 c41 -20 66 -63 66 -114 0 -90 -47 -141
-130 -141 l-40 0 0 135 0 135 36 0 c20 0 50 -7 68 -15z"/>
<path d="M7037 683 c-4 -3 -7 -89 -7 -190 l0 -183 120 0 120 0 0 25 c0 25 -1
25 -90 25 l-90 0 0 60 0 60 65 0 c63 0 65 1 65 25 0 24 -2 25 -65 25 l-65 0 0
50 0 50 79 0 c72 0 79 2 84 22 3 12 4 25 1 30 -6 10 -208 11 -217 1z"/>
<path d="M7373 670 c-45 -27 -59 -87 -32 -137 6 -12 39 -36 73 -54 78 -41 96
-57 96 -85 0 -39 -77 -53 -161 -28 -22 6 -37 -45 -17 -57 7 -5 45 -9 83 -9
110 0 163 42 152 123 -7 49 -24 67 -106 109 -77 39 -93 60 -68 85 18 18 70 22
120 9 21 -5 26 -2 32 21 8 35 -6 43 -80 43 -42 0 -70 -6 -92 -20z"/>
<path d="M7727 669 c-86 -45 -123 -178 -77 -273 28 -60 87 -96 154 -96 54 0
89 16 128 57 36 38 49 76 49 145 1 144 -132 231 -254 167z m131 -49 c79 -48
83 -189 7 -248 -33 -26 -65 -28 -106 -6 -33 17 -68 81 -69 126 0 46 31 109 64
129 40 24 63 24 104 -1z"/>
<path d="M8165 671 c-73 -34 -115 -102 -115 -186 0 -110 78 -185 194 -185 67
0 86 9 86 39 0 26 -1 26 -62 23 -81 -4 -119 18 -143 82 -23 61 -14 109 31 154
31 31 37 33 91 31 l58 -3 0 30 c0 28 -2 29 -50 32 -32 1 -64 -5 -90 -17z"/>
<path d="M9787 683 c-3 -4 -5 -90 -5 -190 l0 -183 32 0 32 0 -1 188 -1 187
-26 3 c-14 2 -28 0 -31 -5z"/>
<path d="M9960 500 l0 -190 120 0 120 0 0 25 c0 25 -1 25 -90 25 l-90 0 0 60
0 60 65 0 c63 0 65 1 65 25 0 24 -2 25 -65 25 l-65 0 0 50 0 50 81 0 80 0 -3
28 -3 27 -107 3 -108 3 0 -191z"/>
<path d="M10277 683 c-4 -3 -7 -89 -7 -190 l0 -183 120 0 120 0 0 25 c0 25 -1
25 -88 25 l-87 0 -3 60 -3 60 65 0 c64 0 66 1 66 25 0 24 -2 25 -65 25 l-65 0
0 50 0 50 79 0 c76 0 79 1 83 25 3 13 3 27 0 30 -8 7 -208 6 -215 -2z"/>
<path d="M10590 500 l0 -191 118 3 c116 3 117 3 117 27 0 24 -1 24 -87 22
l-88 -2 0 60 0 61 65 0 c63 0 65 1 65 25 0 24 -2 25 -65 25 l-65 0 0 50 0 50
81 0 80 0 -3 28 -3 27 -107 3 -108 3 0 -191z"/>
<path d="M6253 663 c-10 -3 -13 -49 -13 -179 l0 -174 75 0 c121 0 175 35 175
113 0 27 -7 45 -26 64 -23 23 -24 27 -10 42 9 10 16 34 16 54 0 42 -26 72 -72
81 -36 7 -127 7 -145 -1z m138 -53 c12 -7 19 -21 19 -41 0 -33 -27 -49 -81
-49 -28 0 -29 1 -29 50 l0 50 36 0 c19 0 44 -5 55 -10z m24 -164 c45 -45 10
-86 -76 -86 l-39 0 0 55 0 55 45 0 c35 0 52 -6 70 -24z"/>
<path d="M6535 659 c-4 -5 9 -34 28 -63 68 -103 80 -134 78 -213 l-1 -73 35 0
36 0 -7 58 c-7 69 2 95 74 206 29 43 49 82 46 87 -3 5 -16 9 -29 9 -19 0 -32
-15 -67 -80 -24 -44 -45 -80 -48 -80 -3 0 -20 30 -39 66 -19 36 -40 72 -48 80
-17 17 -49 18 -58 3z"/>
<path d="M8630 648 c-74 -180 -130 -320 -130 -329 0 -6 14 -9 32 -7 29 3 33 8
46 56 l15 52 71 0 72 0 18 -55 c16 -53 18 -55 52 -55 42 0 46 -19 -40 195 -62
153 -66 159 -95 163 -25 2 -33 -2 -41 -20z m76 -154 c6 -23 4 -24 -44 -24
l-50 0 27 65 26 64 18 -41 c9 -22 20 -51 23 -64z"/>
<path d="M8899 668 c0 -2 -2 -83 -2 -181 l-2 -177 28 0 28 0 -3 125 c-2 69 -2
125 -1 125 1 0 41 -56 89 -125 69 -99 93 -125 111 -125 l23 0 0 174 c0 170 0
174 -22 179 -12 3 -25 4 -30 1 -5 -3 -7 -60 -4 -126 3 -66 3 -118 2 -117 -2 2
-40 59 -85 127 -68 100 -87 122 -107 122 -13 0 -24 -1 -25 -2z"/>
<path d="M9279 669 c0 -2 -1 -83 -2 -181 l-2 -176 46 -6 c110 -15 191 29 224
123 20 58 19 96 -5 146 -29 60 -83 87 -182 93 -43 3 -78 3 -79 1z m160 -73
c58 -30 75 -134 32 -194 -24 -34 -87 -58 -121 -47 -19 6 -20 16 -20 137 l0
131 41 -7 c23 -4 53 -13 68 -20z"/>
</g>
</svg>
